<mxfile host="app.diagrams.net" agent="Mozilla/5.0 (Windows NT 10.0; Win64; x64; rv:140.0) Gecko/20100101 Firefox/140.0" version="27.1.6">
  <diagram name="Page-1" id="X4MKPGFBlVRJS-XEp9-Z">
    <mxGraphModel dx="1828" dy="1226" grid="1" gridSize="10" guides="1" tooltips="1" connect="1" arrows="1" fold="1" page="1" pageScale="1" pageWidth="850" pageHeight="1100" math="0" shadow="0">
      <root>
        <mxCell id="0" />
        <mxCell id="1" parent="0" />
        <mxCell id="pwOuHMmwz394dW8Bwof7-1" value="DEPARTMENT" style="whiteSpace=wrap;html=1;align=center;" vertex="1" parent="1">
          <mxGeometry x="170" y="120" width="100" height="40" as="geometry" />
        </mxCell>
        <mxCell id="pwOuHMmwz394dW8Bwof7-4" value="Name" style="ellipse;whiteSpace=wrap;html=1;align=center;" vertex="1" parent="1">
          <mxGeometry x="20" y="60" width="100" height="40" as="geometry" />
        </mxCell>
        <mxCell id="pwOuHMmwz394dW8Bwof7-7" value="" style="endArrow=none;html=1;rounded=0;entryX=1;entryY=1;entryDx=0;entryDy=0;exitX=0;exitY=0;exitDx=0;exitDy=0;" edge="1" parent="1" source="pwOuHMmwz394dW8Bwof7-1" target="pwOuHMmwz394dW8Bwof7-4">
          <mxGeometry relative="1" as="geometry">
            <mxPoint x="140" y="140" as="sourcePoint" />
            <mxPoint x="300" y="140" as="targetPoint" />
          </mxGeometry>
        </mxCell>
        <mxCell id="pwOuHMmwz394dW8Bwof7-8" value="" style="endArrow=none;html=1;rounded=0;exitX=1;exitY=0;exitDx=0;exitDy=0;entryX=0;entryY=0.75;entryDx=0;entryDy=0;" edge="1" parent="1" source="pwOuHMmwz394dW8Bwof7-37" target="pwOuHMmwz394dW8Bwof7-1">
          <mxGeometry relative="1" as="geometry">
            <mxPoint x="125.35533905932743" y="114.14213562373095" as="sourcePoint" />
            <mxPoint x="300" y="140" as="targetPoint" />
          </mxGeometry>
        </mxCell>
        <mxCell id="pwOuHMmwz394dW8Bwof7-9" value="TIME_SLOT" style="whiteSpace=wrap;html=1;align=center;" vertex="1" parent="1">
          <mxGeometry x="540" y="790" width="100" height="40" as="geometry" />
        </mxCell>
        <mxCell id="pwOuHMmwz394dW8Bwof7-11" value="Day" style="ellipse;whiteSpace=wrap;html=1;align=center;" vertex="1" parent="1">
          <mxGeometry x="540" y="880" width="100" height="40" as="geometry" />
        </mxCell>
        <mxCell id="pwOuHMmwz394dW8Bwof7-12" value="Start_time" style="ellipse;whiteSpace=wrap;html=1;align=center;" vertex="1" parent="1">
          <mxGeometry x="650" y="860" width="100" height="40" as="geometry" />
        </mxCell>
        <mxCell id="pwOuHMmwz394dW8Bwof7-13" value="End_time" style="ellipse;whiteSpace=wrap;html=1;align=center;" vertex="1" parent="1">
          <mxGeometry x="700" y="800" width="100" height="40" as="geometry" />
        </mxCell>
        <mxCell id="pwOuHMmwz394dW8Bwof7-14" value="" style="endArrow=none;html=1;rounded=0;entryX=0;entryY=0;entryDx=0;entryDy=0;exitX=1;exitY=0.5;exitDx=0;exitDy=0;" edge="1" parent="1" source="pwOuHMmwz394dW8Bwof7-9" target="pwOuHMmwz394dW8Bwof7-13">
          <mxGeometry relative="1" as="geometry">
            <mxPoint x="480" y="820" as="sourcePoint" />
            <mxPoint x="640" y="820" as="targetPoint" />
          </mxGeometry>
        </mxCell>
        <mxCell id="pwOuHMmwz394dW8Bwof7-15" value="" style="endArrow=none;html=1;rounded=0;entryX=0.5;entryY=0;entryDx=0;entryDy=0;exitX=1;exitY=1;exitDx=0;exitDy=0;" edge="1" parent="1" source="pwOuHMmwz394dW8Bwof7-9" target="pwOuHMmwz394dW8Bwof7-12">
          <mxGeometry relative="1" as="geometry">
            <mxPoint x="480" y="820" as="sourcePoint" />
            <mxPoint x="640" y="820" as="targetPoint" />
          </mxGeometry>
        </mxCell>
        <mxCell id="pwOuHMmwz394dW8Bwof7-16" value="" style="endArrow=none;html=1;rounded=0;exitX=0.5;exitY=0;exitDx=0;exitDy=0;entryX=0.5;entryY=1;entryDx=0;entryDy=0;" edge="1" parent="1" source="pwOuHMmwz394dW8Bwof7-11" target="pwOuHMmwz394dW8Bwof7-9">
          <mxGeometry relative="1" as="geometry">
            <mxPoint x="480" y="820" as="sourcePoint" />
            <mxPoint x="640" y="820" as="targetPoint" />
          </mxGeometry>
        </mxCell>
        <mxCell id="pwOuHMmwz394dW8Bwof7-17" value="" style="endArrow=none;html=1;rounded=0;entryX=0;entryY=1;entryDx=0;entryDy=0;exitX=1;exitY=0;exitDx=0;exitDy=0;" edge="1" parent="1" source="pwOuHMmwz394dW8Bwof7-39" target="pwOuHMmwz394dW8Bwof7-9">
          <mxGeometry relative="1" as="geometry">
            <mxPoint x="458.41106397986687" y="847.196312006711" as="sourcePoint" />
            <mxPoint x="640" y="820" as="targetPoint" />
          </mxGeometry>
        </mxCell>
        <mxCell id="pwOuHMmwz394dW8Bwof7-18" value="COURSES" style="whiteSpace=wrap;html=1;align=center;" vertex="1" parent="1">
          <mxGeometry x="570" y="120" width="100" height="40" as="geometry" />
        </mxCell>
        <mxCell id="pwOuHMmwz394dW8Bwof7-20" value="Course_name" style="ellipse;whiteSpace=wrap;html=1;align=center;" vertex="1" parent="1">
          <mxGeometry x="660" y="200" width="100" height="40" as="geometry" />
        </mxCell>
        <mxCell id="pwOuHMmwz394dW8Bwof7-21" value="Department_id" style="ellipse;whiteSpace=wrap;html=1;align=center;" vertex="1" parent="1">
          <mxGeometry x="710" y="120" width="100" height="40" as="geometry" />
        </mxCell>
        <mxCell id="pwOuHMmwz394dW8Bwof7-22" value="Credits" style="ellipse;whiteSpace=wrap;html=1;align=center;" vertex="1" parent="1">
          <mxGeometry x="700" y="60" width="100" height="40" as="geometry" />
        </mxCell>
        <mxCell id="pwOuHMmwz394dW8Bwof7-23" value="Year" style="ellipse;whiteSpace=wrap;html=1;align=center;" vertex="1" parent="1">
          <mxGeometry x="590" y="20" width="100" height="40" as="geometry" />
        </mxCell>
        <mxCell id="pwOuHMmwz394dW8Bwof7-24" value="" style="endArrow=none;html=1;rounded=0;entryX=0.575;entryY=1.008;entryDx=0;entryDy=0;entryPerimeter=0;exitX=0.5;exitY=0;exitDx=0;exitDy=0;" edge="1" parent="1" source="pwOuHMmwz394dW8Bwof7-18" target="pwOuHMmwz394dW8Bwof7-23">
          <mxGeometry relative="1" as="geometry">
            <mxPoint x="320" y="150" as="sourcePoint" />
            <mxPoint x="480" y="150" as="targetPoint" />
          </mxGeometry>
        </mxCell>
        <mxCell id="pwOuHMmwz394dW8Bwof7-25" value="" style="endArrow=none;html=1;rounded=0;entryX=0;entryY=1;entryDx=0;entryDy=0;exitX=0.833;exitY=-0.033;exitDx=0;exitDy=0;exitPerimeter=0;" edge="1" parent="1" source="pwOuHMmwz394dW8Bwof7-18" target="pwOuHMmwz394dW8Bwof7-22">
          <mxGeometry relative="1" as="geometry">
            <mxPoint x="320" y="150" as="sourcePoint" />
            <mxPoint x="480" y="150" as="targetPoint" />
          </mxGeometry>
        </mxCell>
        <mxCell id="pwOuHMmwz394dW8Bwof7-26" value="" style="endArrow=none;html=1;rounded=0;entryX=0;entryY=0.5;entryDx=0;entryDy=0;exitX=1;exitY=0.5;exitDx=0;exitDy=0;" edge="1" parent="1" source="pwOuHMmwz394dW8Bwof7-18" target="pwOuHMmwz394dW8Bwof7-21">
          <mxGeometry relative="1" as="geometry">
            <mxPoint x="320" y="150" as="sourcePoint" />
            <mxPoint x="480" y="150" as="targetPoint" />
          </mxGeometry>
        </mxCell>
        <mxCell id="pwOuHMmwz394dW8Bwof7-27" value="" style="endArrow=none;html=1;rounded=0;entryX=0.5;entryY=0;entryDx=0;entryDy=0;exitX=0.5;exitY=1;exitDx=0;exitDy=0;" edge="1" parent="1" source="pwOuHMmwz394dW8Bwof7-18" target="pwOuHMmwz394dW8Bwof7-20">
          <mxGeometry relative="1" as="geometry">
            <mxPoint x="320" y="150" as="sourcePoint" />
            <mxPoint x="480" y="150" as="targetPoint" />
          </mxGeometry>
        </mxCell>
        <mxCell id="pwOuHMmwz394dW8Bwof7-28" value="" style="endArrow=none;html=1;rounded=0;exitX=0.25;exitY=0;exitDx=0;exitDy=0;entryX=1;entryY=1;entryDx=0;entryDy=0;" edge="1" parent="1" source="pwOuHMmwz394dW8Bwof7-18" target="pwOuHMmwz394dW8Bwof7-67">
          <mxGeometry relative="1" as="geometry">
            <mxPoint x="320" y="150" as="sourcePoint" />
            <mxPoint x="538.8" y="64.67999999999995" as="targetPoint" />
          </mxGeometry>
        </mxCell>
        <mxCell id="pwOuHMmwz394dW8Bwof7-29" value="SCHEDULE" style="whiteSpace=wrap;html=1;align=center;" vertex="1" parent="1">
          <mxGeometry x="540" y="480" width="100" height="40" as="geometry" />
        </mxCell>
        <mxCell id="pwOuHMmwz394dW8Bwof7-31" value="Course_id" style="ellipse;whiteSpace=wrap;html=1;align=center;" vertex="1" parent="1">
          <mxGeometry x="720" y="550" width="100" height="40" as="geometry" />
        </mxCell>
        <mxCell id="pwOuHMmwz394dW8Bwof7-32" value="Hall_id" style="ellipse;whiteSpace=wrap;html=1;align=center;" vertex="1" parent="1">
          <mxGeometry x="730" y="420" width="100" height="40" as="geometry" />
        </mxCell>
        <mxCell id="pwOuHMmwz394dW8Bwof7-34" value="Timeslot_id" style="ellipse;whiteSpace=wrap;html=1;align=center;" vertex="1" parent="1">
          <mxGeometry x="425" y="370" width="100" height="40" as="geometry" />
        </mxCell>
        <mxCell id="pwOuHMmwz394dW8Bwof7-35" value="Semester" style="ellipse;whiteSpace=wrap;html=1;align=center;" vertex="1" parent="1">
          <mxGeometry x="630" y="590" width="100" height="40" as="geometry" />
        </mxCell>
        <mxCell id="pwOuHMmwz394dW8Bwof7-36" value="Status" style="ellipse;whiteSpace=wrap;html=1;align=center;" vertex="1" parent="1">
          <mxGeometry x="470" y="580" width="100" height="40" as="geometry" />
        </mxCell>
        <mxCell id="pwOuHMmwz394dW8Bwof7-37" value="Department_id" style="ellipse;whiteSpace=wrap;html=1;align=center;fontStyle=4;" vertex="1" parent="1">
          <mxGeometry x="30" y="170" width="100" height="40" as="geometry" />
        </mxCell>
        <mxCell id="pwOuHMmwz394dW8Bwof7-39" value="Timeslot_id" style="ellipse;whiteSpace=wrap;html=1;align=center;fontStyle=4;" vertex="1" parent="1">
          <mxGeometry x="410" y="850" width="100" height="40" as="geometry" />
        </mxCell>
        <mxCell id="pwOuHMmwz394dW8Bwof7-40" value="LECTURE_HALL" style="whiteSpace=wrap;html=1;align=center;" vertex="1" parent="1">
          <mxGeometry x="130" y="480" width="100" height="40" as="geometry" />
        </mxCell>
        <mxCell id="pwOuHMmwz394dW8Bwof7-41" value="Name" style="ellipse;whiteSpace=wrap;html=1;align=center;" vertex="1" parent="1">
          <mxGeometry x="10" y="450" width="100" height="40" as="geometry" />
        </mxCell>
        <mxCell id="pwOuHMmwz394dW8Bwof7-42" value="Capacity" style="ellipse;whiteSpace=wrap;html=1;align=center;" vertex="1" parent="1">
          <mxGeometry x="10" y="510" width="100" height="40" as="geometry" />
        </mxCell>
        <mxCell id="pwOuHMmwz394dW8Bwof7-43" value="Hall_id" style="ellipse;whiteSpace=wrap;html=1;align=center;fontStyle=4;" vertex="1" parent="1">
          <mxGeometry x="150" y="370" width="100" height="40" as="geometry" />
        </mxCell>
        <mxCell id="pwOuHMmwz394dW8Bwof7-44" value="Location" style="ellipse;whiteSpace=wrap;html=1;align=center;" vertex="1" parent="1">
          <mxGeometry x="90" y="570" width="100" height="40" as="geometry" />
        </mxCell>
        <mxCell id="pwOuHMmwz394dW8Bwof7-45" value="Type" style="ellipse;whiteSpace=wrap;html=1;align=center;" vertex="1" parent="1">
          <mxGeometry x="40" y="390" width="100" height="40" as="geometry" />
        </mxCell>
        <mxCell id="pwOuHMmwz394dW8Bwof7-46" value="OFFERS" style="shape=rhombus;perimeter=rhombusPerimeter;whiteSpace=wrap;html=1;align=center;" vertex="1" parent="1">
          <mxGeometry x="330" y="110" width="120" height="60" as="geometry" />
        </mxCell>
        <mxCell id="pwOuHMmwz394dW8Bwof7-47" value="" style="endArrow=none;html=1;rounded=0;entryX=0;entryY=0.5;entryDx=0;entryDy=0;exitX=1;exitY=0.5;exitDx=0;exitDy=0;" edge="1" parent="1" source="pwOuHMmwz394dW8Bwof7-1" target="pwOuHMmwz394dW8Bwof7-46">
          <mxGeometry relative="1" as="geometry">
            <mxPoint x="250" y="370" as="sourcePoint" />
            <mxPoint x="360" y="130" as="targetPoint" />
          </mxGeometry>
        </mxCell>
        <mxCell id="pwOuHMmwz394dW8Bwof7-48" value="(1,1)" style="resizable=0;html=1;whiteSpace=wrap;align=right;verticalAlign=bottom;" connectable="0" vertex="1" parent="pwOuHMmwz394dW8Bwof7-47">
          <mxGeometry x="1" relative="1" as="geometry">
            <mxPoint x="-10" as="offset" />
          </mxGeometry>
        </mxCell>
        <mxCell id="pwOuHMmwz394dW8Bwof7-49" value="" style="endArrow=none;html=1;rounded=0;entryX=1;entryY=0.5;entryDx=0;entryDy=0;exitX=0;exitY=0.5;exitDx=0;exitDy=0;" edge="1" parent="1" source="pwOuHMmwz394dW8Bwof7-18" target="pwOuHMmwz394dW8Bwof7-46">
          <mxGeometry relative="1" as="geometry">
            <mxPoint x="250" y="370" as="sourcePoint" />
            <mxPoint x="410" y="370" as="targetPoint" />
          </mxGeometry>
        </mxCell>
        <mxCell id="pwOuHMmwz394dW8Bwof7-50" value="(1,N)" style="resizable=0;html=1;whiteSpace=wrap;align=right;verticalAlign=bottom;" connectable="0" vertex="1" parent="pwOuHMmwz394dW8Bwof7-49">
          <mxGeometry x="1" relative="1" as="geometry">
            <mxPoint x="30" as="offset" />
          </mxGeometry>
        </mxCell>
        <mxCell id="pwOuHMmwz394dW8Bwof7-51" value="ALLOCATED_TO" style="shape=rhombus;perimeter=rhombusPerimeter;whiteSpace=wrap;html=1;align=center;" vertex="1" parent="1">
          <mxGeometry x="530" y="260" width="120" height="60" as="geometry" />
        </mxCell>
        <mxCell id="pwOuHMmwz394dW8Bwof7-52" value="" style="endArrow=none;html=1;rounded=0;entryX=0.5;entryY=0;entryDx=0;entryDy=0;exitX=0.25;exitY=1;exitDx=0;exitDy=0;" edge="1" parent="1" source="pwOuHMmwz394dW8Bwof7-18" target="pwOuHMmwz394dW8Bwof7-51">
          <mxGeometry relative="1" as="geometry">
            <mxPoint x="600" y="170" as="sourcePoint" />
            <mxPoint x="510" y="440" as="targetPoint" />
          </mxGeometry>
        </mxCell>
        <mxCell id="pwOuHMmwz394dW8Bwof7-53" value="(1,N)" style="resizable=0;html=1;whiteSpace=wrap;align=right;verticalAlign=bottom;" connectable="0" vertex="1" parent="pwOuHMmwz394dW8Bwof7-52">
          <mxGeometry x="1" relative="1" as="geometry">
            <mxPoint x="-10" y="-20" as="offset" />
          </mxGeometry>
        </mxCell>
        <mxCell id="pwOuHMmwz394dW8Bwof7-54" value="" style="endArrow=none;html=1;rounded=0;entryX=0.5;entryY=1;entryDx=0;entryDy=0;exitX=0.5;exitY=0;exitDx=0;exitDy=0;" edge="1" parent="1" source="pwOuHMmwz394dW8Bwof7-29" target="pwOuHMmwz394dW8Bwof7-51">
          <mxGeometry relative="1" as="geometry">
            <mxPoint x="350" y="440" as="sourcePoint" />
            <mxPoint x="510" y="440" as="targetPoint" />
          </mxGeometry>
        </mxCell>
        <mxCell id="pwOuHMmwz394dW8Bwof7-55" value="(1,1)" style="resizable=0;html=1;whiteSpace=wrap;align=right;verticalAlign=bottom;" connectable="0" vertex="1" parent="pwOuHMmwz394dW8Bwof7-54">
          <mxGeometry x="1" relative="1" as="geometry">
            <mxPoint x="-10" y="30" as="offset" />
          </mxGeometry>
        </mxCell>
        <mxCell id="pwOuHMmwz394dW8Bwof7-56" value="HOSTED_IN" style="shape=rhombus;perimeter=rhombusPerimeter;whiteSpace=wrap;html=1;align=center;" vertex="1" parent="1">
          <mxGeometry x="310" y="470" width="120" height="60" as="geometry" />
        </mxCell>
        <mxCell id="pwOuHMmwz394dW8Bwof7-57" value="" style="endArrow=none;html=1;rounded=0;entryX=0;entryY=0.5;entryDx=0;entryDy=0;exitX=1;exitY=0.5;exitDx=0;exitDy=0;" edge="1" parent="1" source="pwOuHMmwz394dW8Bwof7-40" target="pwOuHMmwz394dW8Bwof7-56">
          <mxGeometry relative="1" as="geometry">
            <mxPoint x="350" y="390" as="sourcePoint" />
            <mxPoint x="510" y="390" as="targetPoint" />
          </mxGeometry>
        </mxCell>
        <mxCell id="pwOuHMmwz394dW8Bwof7-58" value="(1,N)" style="resizable=0;html=1;whiteSpace=wrap;align=right;verticalAlign=bottom;" connectable="0" vertex="1" parent="pwOuHMmwz394dW8Bwof7-57">
          <mxGeometry x="1" relative="1" as="geometry">
            <mxPoint x="-10" as="offset" />
          </mxGeometry>
        </mxCell>
        <mxCell id="pwOuHMmwz394dW8Bwof7-59" value="" style="endArrow=none;html=1;rounded=0;exitX=0;exitY=0.5;exitDx=0;exitDy=0;entryX=1;entryY=0.5;entryDx=0;entryDy=0;" edge="1" parent="1" source="pwOuHMmwz394dW8Bwof7-29" target="pwOuHMmwz394dW8Bwof7-56">
          <mxGeometry relative="1" as="geometry">
            <mxPoint x="350" y="390" as="sourcePoint" />
            <mxPoint x="510" y="390" as="targetPoint" />
          </mxGeometry>
        </mxCell>
        <mxCell id="pwOuHMmwz394dW8Bwof7-60" value="(1,1)" style="resizable=0;html=1;whiteSpace=wrap;align=right;verticalAlign=bottom;" connectable="0" vertex="1" parent="pwOuHMmwz394dW8Bwof7-59">
          <mxGeometry x="1" relative="1" as="geometry">
            <mxPoint x="31" as="offset" />
          </mxGeometry>
        </mxCell>
        <mxCell id="pwOuHMmwz394dW8Bwof7-61" value="SCHEDULED_AT" style="shape=rhombus;perimeter=rhombusPerimeter;whiteSpace=wrap;html=1;align=center;" vertex="1" parent="1">
          <mxGeometry x="530" y="670" width="120" height="60" as="geometry" />
        </mxCell>
        <mxCell id="pwOuHMmwz394dW8Bwof7-62" value="" style="endArrow=none;html=1;rounded=0;entryX=0.5;entryY=0;entryDx=0;entryDy=0;exitX=0.5;exitY=1;exitDx=0;exitDy=0;" edge="1" parent="1" source="pwOuHMmwz394dW8Bwof7-29" target="pwOuHMmwz394dW8Bwof7-61">
          <mxGeometry relative="1" as="geometry">
            <mxPoint x="350" y="390" as="sourcePoint" />
            <mxPoint x="510" y="390" as="targetPoint" />
          </mxGeometry>
        </mxCell>
        <mxCell id="pwOuHMmwz394dW8Bwof7-63" value="(1,1)" style="resizable=0;html=1;whiteSpace=wrap;align=right;verticalAlign=bottom;" connectable="0" vertex="1" parent="pwOuHMmwz394dW8Bwof7-62">
          <mxGeometry x="1" relative="1" as="geometry">
            <mxPoint x="-10" y="-21" as="offset" />
          </mxGeometry>
        </mxCell>
        <mxCell id="pwOuHMmwz394dW8Bwof7-64" value="" style="endArrow=none;html=1;rounded=0;exitX=0.5;exitY=0;exitDx=0;exitDy=0;entryX=0.5;entryY=1;entryDx=0;entryDy=0;" edge="1" parent="1" source="pwOuHMmwz394dW8Bwof7-9" target="pwOuHMmwz394dW8Bwof7-61">
          <mxGeometry relative="1" as="geometry">
            <mxPoint x="690" y="570" as="sourcePoint" />
            <mxPoint x="668.2352941176473" y="774.1176470588236" as="targetPoint" />
          </mxGeometry>
        </mxCell>
        <mxCell id="pwOuHMmwz394dW8Bwof7-65" value="(1,N)" style="resizable=0;html=1;whiteSpace=wrap;align=right;verticalAlign=bottom;" connectable="0" vertex="1" parent="pwOuHMmwz394dW8Bwof7-64">
          <mxGeometry x="1" relative="1" as="geometry">
            <mxPoint x="-10" y="30" as="offset" />
          </mxGeometry>
        </mxCell>
        <mxCell id="pwOuHMmwz394dW8Bwof7-66" value="Schedule_id" style="ellipse;whiteSpace=wrap;html=1;align=center;fontStyle=4;" vertex="1" parent="1">
          <mxGeometry x="650" y="370" width="100" height="40" as="geometry" />
        </mxCell>
        <mxCell id="pwOuHMmwz394dW8Bwof7-67" value="Course_id" style="ellipse;whiteSpace=wrap;html=1;align=center;fontStyle=4;" vertex="1" parent="1">
          <mxGeometry x="460" y="30" width="100" height="40" as="geometry" />
        </mxCell>
        <mxCell id="pwOuHMmwz394dW8Bwof7-68" value="" style="endArrow=none;html=1;rounded=0;exitX=0.5;exitY=0;exitDx=0;exitDy=0;entryX=0.25;entryY=1;entryDx=0;entryDy=0;" edge="1" parent="1" source="pwOuHMmwz394dW8Bwof7-44" target="pwOuHMmwz394dW8Bwof7-40">
          <mxGeometry relative="1" as="geometry">
            <mxPoint x="390" y="500" as="sourcePoint" />
            <mxPoint x="550" y="500" as="targetPoint" />
          </mxGeometry>
        </mxCell>
        <mxCell id="pwOuHMmwz394dW8Bwof7-69" value="" style="endArrow=none;html=1;rounded=0;exitX=1;exitY=0.5;exitDx=0;exitDy=0;entryX=0;entryY=1;entryDx=0;entryDy=0;" edge="1" parent="1" source="pwOuHMmwz394dW8Bwof7-42" target="pwOuHMmwz394dW8Bwof7-40">
          <mxGeometry relative="1" as="geometry">
            <mxPoint x="390" y="500" as="sourcePoint" />
            <mxPoint x="550" y="500" as="targetPoint" />
          </mxGeometry>
        </mxCell>
        <mxCell id="pwOuHMmwz394dW8Bwof7-70" value="" style="endArrow=none;html=1;rounded=0;exitX=1;exitY=1;exitDx=0;exitDy=0;entryX=0;entryY=0.5;entryDx=0;entryDy=0;" edge="1" parent="1" source="pwOuHMmwz394dW8Bwof7-41" target="pwOuHMmwz394dW8Bwof7-40">
          <mxGeometry relative="1" as="geometry">
            <mxPoint x="390" y="500" as="sourcePoint" />
            <mxPoint x="550" y="500" as="targetPoint" />
          </mxGeometry>
        </mxCell>
        <mxCell id="pwOuHMmwz394dW8Bwof7-71" value="" style="endArrow=none;html=1;rounded=0;exitX=1;exitY=1;exitDx=0;exitDy=0;entryX=0.25;entryY=0;entryDx=0;entryDy=0;" edge="1" parent="1" source="pwOuHMmwz394dW8Bwof7-45" target="pwOuHMmwz394dW8Bwof7-40">
          <mxGeometry relative="1" as="geometry">
            <mxPoint x="390" y="500" as="sourcePoint" />
            <mxPoint x="550" y="500" as="targetPoint" />
          </mxGeometry>
        </mxCell>
        <mxCell id="pwOuHMmwz394dW8Bwof7-72" value="" style="endArrow=none;html=1;rounded=0;exitX=0.5;exitY=1;exitDx=0;exitDy=0;entryX=0.5;entryY=0;entryDx=0;entryDy=0;" edge="1" parent="1" source="pwOuHMmwz394dW8Bwof7-43" target="pwOuHMmwz394dW8Bwof7-40">
          <mxGeometry relative="1" as="geometry">
            <mxPoint x="390" y="500" as="sourcePoint" />
            <mxPoint x="550" y="500" as="targetPoint" />
          </mxGeometry>
        </mxCell>
        <mxCell id="pwOuHMmwz394dW8Bwof7-74" style="edgeStyle=orthogonalEdgeStyle;rounded=0;orthogonalLoop=1;jettySize=auto;html=1;exitX=0.5;exitY=1;exitDx=0;exitDy=0;" edge="1" parent="1" source="pwOuHMmwz394dW8Bwof7-45" target="pwOuHMmwz394dW8Bwof7-45">
          <mxGeometry relative="1" as="geometry" />
        </mxCell>
        <mxCell id="pwOuHMmwz394dW8Bwof7-75" value="" style="endArrow=none;html=1;rounded=0;entryX=0.5;entryY=0;entryDx=0;entryDy=0;exitX=0.25;exitY=1;exitDx=0;exitDy=0;" edge="1" parent="1" source="pwOuHMmwz394dW8Bwof7-29" target="pwOuHMmwz394dW8Bwof7-36">
          <mxGeometry relative="1" as="geometry">
            <mxPoint x="410" y="360" as="sourcePoint" />
            <mxPoint x="570" y="360" as="targetPoint" />
          </mxGeometry>
        </mxCell>
        <mxCell id="pwOuHMmwz394dW8Bwof7-76" value="" style="endArrow=none;html=1;rounded=0;entryX=0.5;entryY=0;entryDx=0;entryDy=0;exitX=0.75;exitY=1;exitDx=0;exitDy=0;" edge="1" parent="1" source="pwOuHMmwz394dW8Bwof7-29" target="pwOuHMmwz394dW8Bwof7-35">
          <mxGeometry relative="1" as="geometry">
            <mxPoint x="410" y="360" as="sourcePoint" />
            <mxPoint x="570" y="360" as="targetPoint" />
          </mxGeometry>
        </mxCell>
        <mxCell id="pwOuHMmwz394dW8Bwof7-77" value="" style="endArrow=none;html=1;rounded=0;entryX=0;entryY=0;entryDx=0;entryDy=0;exitX=1;exitY=1;exitDx=0;exitDy=0;" edge="1" parent="1" source="pwOuHMmwz394dW8Bwof7-29" target="pwOuHMmwz394dW8Bwof7-31">
          <mxGeometry relative="1" as="geometry">
            <mxPoint x="410" y="360" as="sourcePoint" />
            <mxPoint x="570" y="360" as="targetPoint" />
          </mxGeometry>
        </mxCell>
        <mxCell id="pwOuHMmwz394dW8Bwof7-78" value="" style="endArrow=none;html=1;rounded=0;entryX=1;entryY=1;entryDx=0;entryDy=0;exitX=0.25;exitY=0;exitDx=0;exitDy=0;" edge="1" parent="1" source="pwOuHMmwz394dW8Bwof7-29" target="pwOuHMmwz394dW8Bwof7-34">
          <mxGeometry relative="1" as="geometry">
            <mxPoint x="560" y="470" as="sourcePoint" />
            <mxPoint x="750.5999999999999" y="502.0799999999999" as="targetPoint" />
          </mxGeometry>
        </mxCell>
        <mxCell id="pwOuHMmwz394dW8Bwof7-79" value="" style="endArrow=none;html=1;rounded=0;entryX=0;entryY=0.5;entryDx=0;entryDy=0;exitX=1;exitY=0;exitDx=0;exitDy=0;" edge="1" parent="1" source="pwOuHMmwz394dW8Bwof7-29" target="pwOuHMmwz394dW8Bwof7-32">
          <mxGeometry relative="1" as="geometry">
            <mxPoint x="410" y="360" as="sourcePoint" />
            <mxPoint x="570" y="360" as="targetPoint" />
          </mxGeometry>
        </mxCell>
        <mxCell id="pwOuHMmwz394dW8Bwof7-80" value="" style="endArrow=none;html=1;rounded=0;entryX=0;entryY=1;entryDx=0;entryDy=0;exitX=0.75;exitY=0;exitDx=0;exitDy=0;" edge="1" parent="1" source="pwOuHMmwz394dW8Bwof7-29" target="pwOuHMmwz394dW8Bwof7-66">
          <mxGeometry relative="1" as="geometry">
            <mxPoint x="410" y="360" as="sourcePoint" />
            <mxPoint x="570" y="360" as="targetPoint" />
          </mxGeometry>
        </mxCell>
        <mxCell id="pwOuHMmwz394dW8Bwof7-82" value="User_id" style="ellipse;whiteSpace=wrap;html=1;align=center;" vertex="1" parent="1">
          <mxGeometry x="390" y="540" width="100" height="40" as="geometry" />
        </mxCell>
        <mxCell id="pwOuHMmwz394dW8Bwof7-83" value="" style="endArrow=none;html=1;rounded=0;entryX=0;entryY=1;entryDx=0;entryDy=0;exitX=1;exitY=0;exitDx=0;exitDy=0;" edge="1" parent="1" source="pwOuHMmwz394dW8Bwof7-82" target="pwOuHMmwz394dW8Bwof7-29">
          <mxGeometry relative="1" as="geometry">
            <mxPoint x="390" y="410" as="sourcePoint" />
            <mxPoint x="550" y="410" as="targetPoint" />
          </mxGeometry>
        </mxCell>
        <mxCell id="pwOuHMmwz394dW8Bwof7-84" value="USER" style="whiteSpace=wrap;html=1;align=center;" vertex="1" parent="1">
          <mxGeometry x="1050" y="480" width="100" height="40" as="geometry" />
        </mxCell>
        <mxCell id="pwOuHMmwz394dW8Bwof7-85" value="User_id" style="ellipse;whiteSpace=wrap;html=1;align=center;fontStyle=4;" vertex="1" parent="1">
          <mxGeometry x="1060" y="390" width="100" height="40" as="geometry" />
        </mxCell>
        <mxCell id="pwOuHMmwz394dW8Bwof7-86" value="Username" style="ellipse;whiteSpace=wrap;html=1;align=center;" vertex="1" parent="1">
          <mxGeometry x="1190" y="420" width="100" height="40" as="geometry" />
        </mxCell>
        <mxCell id="pwOuHMmwz394dW8Bwof7-87" value="Password" style="ellipse;whiteSpace=wrap;html=1;align=center;" vertex="1" parent="1">
          <mxGeometry x="1230" y="480" width="100" height="40" as="geometry" />
        </mxCell>
        <mxCell id="pwOuHMmwz394dW8Bwof7-88" value="Role" style="ellipse;whiteSpace=wrap;html=1;align=center;" vertex="1" parent="1">
          <mxGeometry x="1170" y="550" width="100" height="40" as="geometry" />
        </mxCell>
        <mxCell id="pwOuHMmwz394dW8Bwof7-89" value="Email" style="ellipse;whiteSpace=wrap;html=1;align=center;" vertex="1" parent="1">
          <mxGeometry x="1060" y="580" width="100" height="40" as="geometry" />
        </mxCell>
        <mxCell id="pwOuHMmwz394dW8Bwof7-95" value="" style="endArrow=none;html=1;rounded=0;entryX=0.5;entryY=0;entryDx=0;entryDy=0;exitX=0.5;exitY=1;exitDx=0;exitDy=0;" edge="1" parent="1" source="pwOuHMmwz394dW8Bwof7-85" target="pwOuHMmwz394dW8Bwof7-84">
          <mxGeometry relative="1" as="geometry">
            <mxPoint x="870" y="670" as="sourcePoint" />
            <mxPoint x="1030" y="670" as="targetPoint" />
          </mxGeometry>
        </mxCell>
        <mxCell id="pwOuHMmwz394dW8Bwof7-96" value="" style="endArrow=none;html=1;rounded=0;entryX=1;entryY=0;entryDx=0;entryDy=0;" edge="1" parent="1" source="pwOuHMmwz394dW8Bwof7-86" target="pwOuHMmwz394dW8Bwof7-84">
          <mxGeometry relative="1" as="geometry">
            <mxPoint x="870" y="670" as="sourcePoint" />
            <mxPoint x="1030" y="670" as="targetPoint" />
          </mxGeometry>
        </mxCell>
        <mxCell id="pwOuHMmwz394dW8Bwof7-97" value="" style="endArrow=none;html=1;rounded=0;entryX=1;entryY=0.5;entryDx=0;entryDy=0;exitX=0;exitY=0.5;exitDx=0;exitDy=0;" edge="1" parent="1" source="pwOuHMmwz394dW8Bwof7-87" target="pwOuHMmwz394dW8Bwof7-84">
          <mxGeometry relative="1" as="geometry">
            <mxPoint x="870" y="670" as="sourcePoint" />
            <mxPoint x="1030" y="670" as="targetPoint" />
          </mxGeometry>
        </mxCell>
        <mxCell id="pwOuHMmwz394dW8Bwof7-98" value="" style="endArrow=none;html=1;rounded=0;entryX=1;entryY=1;entryDx=0;entryDy=0;exitX=0;exitY=0;exitDx=0;exitDy=0;" edge="1" parent="1" source="pwOuHMmwz394dW8Bwof7-88" target="pwOuHMmwz394dW8Bwof7-84">
          <mxGeometry relative="1" as="geometry">
            <mxPoint x="870" y="670" as="sourcePoint" />
            <mxPoint x="1030" y="670" as="targetPoint" />
          </mxGeometry>
        </mxCell>
        <mxCell id="pwOuHMmwz394dW8Bwof7-99" value="" style="endArrow=none;html=1;rounded=0;entryX=0.5;entryY=1;entryDx=0;entryDy=0;exitX=0.5;exitY=0;exitDx=0;exitDy=0;" edge="1" parent="1" source="pwOuHMmwz394dW8Bwof7-89" target="pwOuHMmwz394dW8Bwof7-84">
          <mxGeometry relative="1" as="geometry">
            <mxPoint x="870" y="670" as="sourcePoint" />
            <mxPoint x="1030" y="670" as="targetPoint" />
          </mxGeometry>
        </mxCell>
        <mxCell id="pwOuHMmwz394dW8Bwof7-100" value="BOOKED_BY" style="shape=rhombus;perimeter=rhombusPerimeter;whiteSpace=wrap;html=1;align=center;" vertex="1" parent="1">
          <mxGeometry x="830" y="470" width="120" height="60" as="geometry" />
        </mxCell>
        <mxCell id="pwOuHMmwz394dW8Bwof7-102" value="" style="endArrow=none;html=1;rounded=0;entryX=0;entryY=0.5;entryDx=0;entryDy=0;exitX=1;exitY=0.5;exitDx=0;exitDy=0;" edge="1" parent="1" source="pwOuHMmwz394dW8Bwof7-29" target="pwOuHMmwz394dW8Bwof7-100">
          <mxGeometry relative="1" as="geometry">
            <mxPoint x="840" y="690" as="sourcePoint" />
            <mxPoint x="1000" y="690" as="targetPoint" />
          </mxGeometry>
        </mxCell>
        <mxCell id="pwOuHMmwz394dW8Bwof7-103" value="(0,N)" style="resizable=0;html=1;whiteSpace=wrap;align=right;verticalAlign=bottom;" connectable="0" vertex="1" parent="pwOuHMmwz394dW8Bwof7-102">
          <mxGeometry x="1" relative="1" as="geometry">
            <mxPoint x="-10" as="offset" />
          </mxGeometry>
        </mxCell>
        <mxCell id="pwOuHMmwz394dW8Bwof7-104" value="" style="endArrow=none;html=1;rounded=0;entryX=1;entryY=0.5;entryDx=0;entryDy=0;exitX=0;exitY=0.5;exitDx=0;exitDy=0;" edge="1" parent="1" source="pwOuHMmwz394dW8Bwof7-84" target="pwOuHMmwz394dW8Bwof7-100">
          <mxGeometry relative="1" as="geometry">
            <mxPoint x="840" y="690" as="sourcePoint" />
            <mxPoint x="1000" y="690" as="targetPoint" />
          </mxGeometry>
        </mxCell>
        <mxCell id="pwOuHMmwz394dW8Bwof7-105" value="(1,N)" style="resizable=0;html=1;whiteSpace=wrap;align=right;verticalAlign=bottom;" connectable="0" vertex="1" parent="pwOuHMmwz394dW8Bwof7-104">
          <mxGeometry x="1" relative="1" as="geometry">
            <mxPoint x="31" as="offset" />
          </mxGeometry>
        </mxCell>
      </root>
    </mxGraphModel>
  </diagram>
</mxfile>
